<?xml version="1.0" encoding="UTF-8"?>
<svg xmlns="http://www.w3.org/2000/svg" xmlns:xlink="http://www.w3.org/1999/xlink" version="1.1" id="Capa_1" x="0px" y="0px" viewBox="0 0 510.333 510.333" style="enable-background:new 0 0 510.333 510.333;" xml:space="preserve" width="512" height="512">
<g>
	<g>
		<path style="fill:none;stroke:#000000;stroke-width:15;stroke-linecap:round;stroke-linejoin:round;stroke-miterlimit:10;" d="&#10;&#9;&#9;&#9;M311.963,392.594H198.37c-42.417,0-76.803-34.386-76.803-76.803v-84.558c0-42.417,34.386-76.803,76.803-76.803h113.593&#10;&#9;&#9;&#9;c42.417,0,76.803,34.386,76.803,76.803v84.558C388.766,358.208,354.38,392.594,311.963,392.594z"/>
		
			<circle style="fill:none;stroke:#000000;stroke-width:15;stroke-linecap:round;stroke-linejoin:round;stroke-miterlimit:10;" cx="207.521" cy="260.381" r="14.807"/>
		
			<circle style="fill:none;stroke:#000000;stroke-width:15;stroke-linecap:round;stroke-linejoin:round;stroke-miterlimit:10;" cx="303.812" cy="260.381" r="14.807"/>
		<path style="fill:none;stroke:#000000;stroke-width:15;stroke-linecap:round;stroke-linejoin:round;stroke-miterlimit:10;" d="&#10;&#9;&#9;&#9;M278.045,298.982h-45.756c-1.65,0-2.987,1.337-2.987,2.987v3.124c0,14.285,11.58,25.865,25.865,25.865h0&#10;&#9;&#9;&#9;c14.285,0,25.865-11.58,25.865-25.865v-3.124C281.032,300.32,279.694,298.982,278.045,298.982z"/>
		<path style="fill:none;stroke:#000000;stroke-width:15;stroke-linecap:round;stroke-linejoin:round;stroke-miterlimit:10;" d="&#10;&#9;&#9;&#9;M121.946,223.601h-14.201c-8.952,0-16.209,7.257-16.209,16.209v69.627c0,8.952,7.257,16.209,16.209,16.209h14.473"/>
		
			<circle style="fill:none;stroke:#000000;stroke-width:15;stroke-linecap:round;stroke-linejoin:round;stroke-miterlimit:10;" cx="303.812" cy="100.461" r="16.961"/>
		
			<line style="fill:none;stroke:#000000;stroke-width:15;stroke-linecap:round;stroke-linejoin:round;stroke-miterlimit:10;" x1="303.812" y1="117.423" x2="303.812" y2="154.429"/>
	</g>
	<path style="fill:none;stroke:#000000;stroke-width:15;stroke-linecap:round;stroke-linejoin:round;stroke-miterlimit:10;" d="&#10;&#9;&#9;M111.081,39.94H89.844C44.367,39.94,7.5,76.806,7.5,122.283v233.905c0,45.477,36.867,82.344,82.344,82.344h53.498l29.014,29.014&#10;&#9;&#9;c3.795,3.795,9.949,3.795,13.745,0l29.014-29.014h205.374c45.477,0,82.344-36.866,82.344-82.344V122.283&#10;&#9;&#9;c0-45.477-36.867-82.344-82.344-82.344H143.044"/>
	<g>
		<path style="fill:none;stroke:#000000;stroke-width:15;stroke-linecap:round;stroke-linejoin:round;stroke-miterlimit:10;" d="&#10;&#9;&#9;&#9;M418.797,259.206V239.81c0-8.952-7.257-16.209-16.209-16.209h-14.201"/>
		<path style="fill:none;stroke:#000000;stroke-width:15;stroke-linecap:round;stroke-linejoin:round;stroke-miterlimit:10;" d="&#10;&#9;&#9;&#9;M388.115,325.646h14.473c8.952,0,16.209-7.257,16.209-16.209v-18.269"/>
	</g>
	<path style="fill:none;stroke:#000000;stroke-width:15;stroke-linecap:round;stroke-linejoin:round;stroke-miterlimit:10;" d="&#10;&#9;&#9;M168.895,223.275c-9.592,12.218-15.328,27.608-15.328,44.346v48.169c0,24.744,20.059,44.803,44.803,44.803h113.594&#10;&#9;&#9;c24.744,0,44.803-20.059,44.803-44.803v-48.17c0-39.707-32.189-71.896-71.895-71.896h-59.408c-11.341,0-22.064,2.635-31.604,7.312"/>
</g>















</svg>
